# xmcd CD database file
#
# Track frame offsets:
#	150
#	12414
#	28511
#	49357
#	79741
#	99209
#	114825
#	144612
#	163390
#	166276
#	189533
#	208612
#
# Disc length: 2956 seconds
#
# Revision: 1
# Processed by: cddbd v1.5.2PL0 Copyright (c) Steve Scherf et al.
# Submitted via: CDex 1.51
#
DISCID=9c0b8a0c
DTITLE=Susi Hyldgaard - Dansk
DYEAR=2011
DGENRE=Jazz
TTITLE0=Regarde je fends la main vers toi
TTITLE1=Sa elsker jeg dig, du
TTITLE2=Was nun wenn
TTITLE3=Il n'y a pas si longtemps
TTITLE4=Women
TTITLE5=Det' Dansk
TTITLE6=Til jer to
TTITLE7=Sie hat Sauerkrautstampfer
TTITLE8=Le combat interieur
TTITLE9=Geburt
TTITLE10=Alles mit einem zu teilen
TTITLE11=Dreh dich
EXTD=YEAR: 2011
EXTT0=
EXTT1=
EXTT2=
EXTT3=
EXTT4=
EXTT5=
EXTT6=
EXTT7=
EXTT8=
EXTT9=
EXTT10=
EXTT11=
PLAYORDER=
